<svg width="84" height="84" viewBox="0 0 84 84" fill="none" xmlns="http://www.w3.org/2000/svg">
<circle cx="42" cy="42" r="42" fill="url(#paint0_linear_120_1083)"/>
<path d="M49.875 36.102C49.1575 36.102 48.5625 35.507 48.5625 34.7895V32.3745C48.5625 30.537 47.775 28.752 46.41 27.5095C45.0275 26.2495 43.2425 25.672 41.3525 25.847C38.2025 26.1445 35.4375 29.3645 35.4375 32.7245V34.422C35.4375 35.1395 34.8425 35.7345 34.125 35.7345C33.4075 35.7345 32.8125 35.1395 32.8125 34.422V32.707C32.8125 27.9995 36.61 23.6595 41.1075 23.222C43.7325 22.977 46.2525 23.7995 48.1775 25.567C50.085 27.2995 51.1875 29.7845 51.1875 32.3745V34.7895C51.1875 35.507 50.5925 36.102 49.875 36.102Z" fill="#D0004B"/>
<path d="M47.2496 60.8125H36.7497C28.6647 60.8125 27.1597 57.05 26.7747 53.3925L25.4622 42.91C25.2697 41.02 25.1997 38.3075 27.0372 36.2775C28.6122 34.5275 31.2197 33.6875 34.9997 33.6875H48.9996C52.7971 33.6875 55.4046 34.545 56.9621 36.2775C58.7821 38.3075 58.7296 41.02 58.5371 42.875L57.2246 53.3925C56.8396 57.05 55.3346 60.8125 47.2496 60.8125ZM34.9997 36.3125C32.0422 36.3125 30.0122 36.89 28.9797 38.045C28.1222 38.99 27.8422 40.4425 28.0697 42.6125L29.3822 53.095C29.6797 55.895 30.4497 58.205 36.7497 58.205H47.2496C53.5496 58.205 54.3196 55.9125 54.6171 53.13L55.9296 42.6125C56.1571 40.4775 55.8771 39.025 55.0196 38.0625C53.9871 36.89 51.9571 36.3125 48.9996 36.3125H34.9997Z" fill="#D0004B"/>
<path d="M47.9853 44.0122C47.0053 44.0122 46.2178 43.2247 46.2178 42.2622C46.2178 41.2997 47.0053 40.5122 47.9678 40.5122C48.9303 40.5122 49.7178 41.2997 49.7178 42.2622C49.7178 43.2247 48.9478 44.0122 47.9853 44.0122Z" fill="#D0004B"/>
<path d="M35.7353 44.0122C34.7553 44.0122 33.9678 43.2247 33.9678 42.2622C33.9678 41.2997 34.7553 40.5122 35.7178 40.5122C36.6803 40.5122 37.4678 41.2997 37.4678 42.2622C37.4678 43.2247 36.6978 44.0122 35.7353 44.0122Z" fill="#D0004B"/>
<defs>
<linearGradient id="paint0_linear_120_1083" x1="74.55" y1="2.14197e-06" x2="42" y2="84" gradientUnits="userSpaceOnUse">
<stop stop-color="#FFFCD9"/>
<stop offset="1" stop-color="#FFE8D9"/>
</linearGradient>
</defs>
</svg>
