<svg width="84" height="84" viewBox="0 0 84 84" fill="none" xmlns="http://www.w3.org/2000/svg">
<circle cx="42" cy="42" r="42" fill="#CAF1FF"/>
<path d="M54.9073 29.3024C62.2453 36.6404 62.2453 48.5693 54.9073 55.9073C47.5693 63.2453 35.6404 63.2453 28.3024 55.9073C27.7951 55.3999 27.7951 54.5585 28.3024 54.0511C28.8098 53.5438 29.6512 53.5438 30.1586 54.0511C36.4695 60.362 46.7402 60.362 53.0511 54.0511C59.3621 47.7402 59.3621 37.4695 53.0511 31.1585C46.7402 24.8476 36.4695 24.8476 30.1586 31.1585C29.6512 31.6659 28.8098 31.6659 28.3024 31.1585C27.7951 30.6512 27.7951 29.8097 28.3024 29.3024C35.6404 21.9644 47.5693 21.9644 54.9073 29.3024Z" fill="#0F5FC2"/>
<g clip-path="url(#clip0_120_1064)">
<path d="M47.622 33.8572C49.9169 33.8572 51.777 35.7176 51.7773 38.0125C51.7773 38.8365 51.5357 39.6038 51.122 40.2498C51.34 40.4101 51.5792 40.6056 51.8212 40.8445C52.6375 41.6504 53.4802 42.9127 53.7919 44.7781L53.8466 45.1589L53.8554 45.2654C53.8661 45.7916 53.4759 46.2506 52.9423 46.3162C52.4087 46.3813 51.9202 46.0296 51.8037 45.5164L51.7851 45.4109L51.7441 45.1257C51.5125 43.7335 50.9014 42.8573 50.3613 42.324C50.0681 42.0345 49.7884 41.8395 49.5898 41.7205C49.5746 41.7114 49.559 41.7042 49.5449 41.696C48.9697 41.9969 48.3161 42.1687 47.622 42.1687C46.9075 42.1687 46.2356 41.9873 45.6484 41.6697C45.62 41.6804 45.5874 41.6919 45.5527 41.7068C45.3715 41.7843 45.1169 41.9158 44.8456 42.1208C44.4787 42.3984 44.0688 42.8199 43.7675 43.4636C45.1121 43.9973 46.0634 45.3089 46.0634 46.8435C46.0634 47.1933 46.0121 47.5312 45.9199 47.8513C46.0375 47.9161 46.1607 47.9881 46.2861 48.071C47.0667 48.5877 47.9384 49.4611 48.497 50.8884L48.6044 51.1814L48.6337 51.2839C48.753 51.7965 48.4674 52.3272 47.9589 52.5017C47.4162 52.6877 46.8247 52.3979 46.6386 51.8552C46.2531 50.731 45.6303 50.1298 45.1386 49.8044C45.0147 49.7224 44.8978 49.6555 44.7919 49.6033C44.156 50.1487 43.3302 50.4792 42.4267 50.4792C41.5231 50.4792 40.6974 50.1489 40.0615 49.6033C39.9558 49.6555 39.8394 49.7226 39.7158 49.8044C39.224 50.1299 38.6013 50.731 38.2158 51.8552C38.0297 52.3978 37.439 52.6874 36.8964 52.5017C36.3537 52.3156 36.064 51.7241 36.2499 51.1814C36.7994 49.5792 37.7356 48.6222 38.5683 48.071C38.6931 47.9884 38.8154 47.9159 38.9326 47.8513C38.8404 47.5313 38.791 47.1932 38.791 46.8435C38.791 45.3091 39.7417 43.9975 41.0859 43.4636C40.7847 42.8202 40.3756 42.3984 40.0087 42.1208C39.7376 41.9158 39.4829 41.7843 39.3017 41.7068C39.2668 41.6919 39.2335 41.6814 39.205 41.6707C38.6181 41.9878 37.9463 42.1687 37.2324 42.1687C36.538 42.1687 35.8839 41.9972 35.3085 41.696C35.2947 41.7041 35.2794 41.7116 35.2646 41.7205C35.0659 41.8395 34.7863 42.0346 34.4931 42.324C33.917 42.8929 33.2603 43.8518 33.0693 45.4109C32.9996 45.9801 32.4822 46.3854 31.913 46.3162C31.3436 46.2464 30.9383 45.7283 31.0078 45.1589C31.2621 43.0829 32.1634 41.704 33.0341 40.8445C33.2758 40.606 33.5137 40.4099 33.7314 40.2498C33.3179 39.6039 33.0771 38.8363 33.0771 38.0125C33.0773 35.7177 34.9376 33.8573 37.2324 33.8572C39.5273 33.8572 41.3884 35.7176 41.3886 38.0125C41.3886 38.7941 41.1721 39.5256 40.7968 40.1501C40.9456 40.2406 41.1029 40.3426 41.2617 40.4626C41.6563 40.7611 42.0635 41.1541 42.4267 41.6599C42.79 41.1539 43.198 40.7611 43.5927 40.4626C43.7517 40.3425 43.9087 40.2397 44.0576 40.1492C43.6826 39.5248 43.4667 38.7938 43.4667 38.0125C43.467 35.7176 45.3271 33.8572 47.622 33.8572ZM42.4267 45.2849C41.5662 45.2851 40.8691 45.983 40.8691 46.8435C40.8691 47.704 41.5662 48.4019 42.4267 48.4021C43.2874 48.4021 43.9853 47.7042 43.9853 46.8435C43.9853 45.9829 43.2873 45.2849 42.4267 45.2849ZM37.2324 35.9353C36.0851 35.9354 35.1555 36.8652 35.1552 38.0125C35.1552 39.1599 36.0849 40.0905 37.2324 40.0906C38.3799 40.0906 39.3105 39.16 39.3105 38.0125C39.3102 36.8651 38.3797 35.9353 37.2324 35.9353ZM47.622 35.9353C46.4746 35.9353 45.5441 36.8651 45.5439 38.0125C45.5439 39.16 46.4745 40.0906 47.622 40.0906C48.7695 40.0905 49.7001 39.16 49.7001 38.0125C49.6999 36.8652 48.7693 35.9354 47.622 35.9353Z" fill="#0F5FC2"/>
</g>
<defs>
<clipPath id="clip0_120_1064">
<rect width="24" height="24" fill="white" transform="translate(31 31)"/>
</clipPath>
</defs>
</svg>
