<svg width="84" height="84" viewBox="0 0 84 84" fill="none" xmlns="http://www.w3.org/2000/svg">
<circle cx="42" cy="42" r="42" fill="url(#paint0_linear_118_999)"/>
<path d="M43.8375 50.8378H40.5475C38.22 50.8378 36.3125 48.8778 36.3125 46.4628C36.3125 45.7453 36.9075 45.1503 37.625 45.1503C38.3425 45.1503 38.9375 45.7453 38.9375 46.4628C38.9375 47.4253 39.655 48.2128 40.5475 48.2128H43.8375C44.52 48.2128 45.0625 47.6003 45.0625 46.8478C45.0625 45.9028 44.8 45.7628 44.205 45.5528L38.9375 43.7153C37.8175 43.3303 36.3125 42.5078 36.3125 39.9353C36.3125 37.7478 38.045 35.9453 40.1625 35.9453H43.4525C45.78 35.9453 47.6875 37.9053 47.6875 40.3203C47.6875 41.0378 47.0925 41.6328 46.375 41.6328C45.6575 41.6328 45.0625 41.0378 45.0625 40.3203C45.0625 39.3578 44.345 38.5703 43.4525 38.5703H40.1625C39.48 38.5703 38.9375 39.1828 38.9375 39.9353C38.9375 40.8803 39.2 41.0203 39.795 41.2303L45.0625 43.0678C46.1825 43.4528 47.6875 44.2753 47.6875 46.8478C47.6875 49.0528 45.955 50.8378 43.8375 50.8378Z" fill="#00AC4F"/>
<path d="M42 52.5874C41.2825 52.5874 40.6875 51.9924 40.6875 51.2749V35.5249C40.6875 34.8074 41.2825 34.2124 42 34.2124C42.7175 34.2124 43.3125 34.8074 43.3125 35.5249V51.2749C43.3125 51.9924 42.7175 52.5874 42 52.5874Z" fill="#00AC4F"/>
<path d="M42 62.2124C31.6225 62.2124 23.1875 53.7774 23.1875 43.3999C23.1875 33.0224 31.6225 24.5874 42 24.5874C42.7175 24.5874 43.3125 25.1824 43.3125 25.8999C43.3125 26.6174 42.7175 27.2124 42 27.2124C33.075 27.2124 25.8125 34.4749 25.8125 43.3999C25.8125 52.3249 33.075 59.5874 42 59.5874C50.925 59.5874 58.1875 52.3249 58.1875 43.3999C58.1875 42.6824 58.7825 42.0874 59.5 42.0874C60.2175 42.0874 60.8125 42.6824 60.8125 43.3999C60.8125 53.7774 52.3775 62.2124 42 62.2124Z" fill="#00AC4F"/>
<path d="M57.75 35.9624H50.75C50.0325 35.9624 49.4375 35.3674 49.4375 34.6499V27.6499C49.4375 26.9324 50.0325 26.3374 50.75 26.3374C51.4675 26.3374 52.0625 26.9324 52.0625 27.6499V33.3374H57.75C58.4675 33.3374 59.0625 33.9324 59.0625 34.6499C59.0625 35.3674 58.4675 35.9624 57.75 35.9624Z" fill="#00AC4F"/>
<path d="M50.749 35.9632C50.4165 35.9632 50.084 35.8407 49.8215 35.5782C49.314 35.0707 49.314 34.2307 49.8215 33.7232L58.5715 24.9732C59.079 24.4657 59.919 24.4657 60.4265 24.9732C60.934 25.4807 60.934 26.3207 60.4265 26.8282L51.6765 35.5782C51.414 35.8407 51.0815 35.9632 50.749 35.9632Z" fill="#00AC4F"/>
<defs>
<linearGradient id="paint0_linear_118_999" x1="74.55" y1="2.14197e-06" x2="42" y2="84" gradientUnits="userSpaceOnUse">
<stop stop-color="#D3FFE7"/>
<stop offset="1" stop-color="#EFFFF6"/>
</linearGradient>
</defs>
</svg>
