<svg width="16" height="16" viewBox="0 0 16 16" fill="none" xmlns="http://www.w3.org/2000/svg">
<g clip-path="url(#clip0_144_904)">
<path d="M6.6665 2.66659L7.99984 1.33325M7.99984 1.33325L9.33317 2.66659M7.99984 1.33325V5.33325" stroke="#292D32" stroke-width="1.2" stroke-linecap="round" stroke-linejoin="round"/>
<path d="M6.6665 13.3334L7.99984 14.6667M7.99984 14.6667L9.33317 13.3334M7.99984 14.6667V10.6667" stroke="#292D32" stroke-width="1.2" stroke-linecap="round" stroke-linejoin="round"/>
<path d="M13.3332 6.66675L14.6665 8.00008M14.6665 8.00008L13.3332 9.33341M14.6665 8.00008H10.6665" stroke="#292D32" stroke-width="1.2" stroke-linecap="round" stroke-linejoin="round"/>
<path d="M2.66683 6.66675L1.3335 8.00008M1.3335 8.00008L2.66683 9.33341M1.3335 8.00008H5.3335" stroke="#292D32" stroke-width="1.2" stroke-linecap="round" stroke-linejoin="round"/>
<path d="M8.00016 8.66659C8.36835 8.66659 8.66683 8.36811 8.66683 7.99992C8.66683 7.63173 8.36835 7.33325 8.00016 7.33325C7.63197 7.33325 7.3335 7.63173 7.3335 7.99992C7.3335 8.36811 7.63197 8.66659 8.00016 8.66659Z" stroke="#292D32" stroke-width="1.2" stroke-linecap="round" stroke-linejoin="round"/>
</g>
<defs>
<clipPath id="clip0_144_904">
<rect width="16" height="16" fill="white"/>
</clipPath>
</defs>
</svg>
