<svg width="21" height="20" viewBox="0 0 21 20" fill="none" xmlns="http://www.w3.org/2000/svg">
<path fill-rule="evenodd" clip-rule="evenodd" d="M10.5 17.0834C14.6421 17.0834 18 13.6159 18 11.25C18 8.88419 14.6421 5.41669 10.5 5.41669C6.35787 5.41669 3 8.8866 3 11.25C3 13.6134 6.35787 17.0834 10.5 17.0834Z" stroke="white" stroke-width="1.5" stroke-linejoin="round"/>
<path d="M10.5 13.75C11.8807 13.75 13 12.6307 13 11.25C13 9.86929 11.8807 8.75 10.5 8.75C9.11929 8.75 8 9.86929 8 11.25C8 12.6307 9.11929 13.75 10.5 13.75Z" stroke="white" stroke-width="1.5" stroke-linejoin="round"/>
<path d="M6.02637 4.69421L7.10741 6.20263" stroke="white" stroke-width="1.5" stroke-linecap="round"/>
<path d="M15.3438 4.87933L14.2627 6.38779" stroke="white" stroke-width="1.5" stroke-linecap="round"/>
<path d="M10.5039 2.91669V5.41669" stroke="white" stroke-width="1.5" stroke-linecap="round"/>
</svg>
