<svg width="24" height="24" viewBox="0 0 24 24" fill="none" xmlns="http://www.w3.org/2000/svg">
<path d="M9 22H15C20 22 22 20 22 15V9C22 4 20 2 15 2H9C4 2 2 4 2 9V15C2 20 4 22 9 22Z" stroke="white" stroke-width="1.5" stroke-linecap="round" stroke-linejoin="round"/>
<path d="M17.8182 11.2613C17.8181 11.0914 17.7366 10.9307 17.5966 10.8245L12.8693 7.24201C12.6535 7.07847 12.3465 7.07847 12.1307 7.24201L7.40341 10.8245C7.2634 10.9307 7.18187 11.0914 7.18182 11.2613V16.3208C7.18182 16.6299 7.44638 16.8805 7.77273 16.8805H8.95455C9.2809 16.8805 9.54545 16.6299 9.54545 16.3208V13.5221C9.54545 12.5947 10.3391 11.8429 11.3182 11.8429H13.6818C14.6609 11.8429 15.4545 12.5947 15.4545 13.5221V16.3208C15.4545 16.6299 15.7191 16.8805 16.0455 16.8805H17.2273C17.5536 16.8805 17.8182 16.6299 17.8182 16.3208V11.2613ZM19 16.3208C19 17.2482 18.2063 18 17.2273 18H16.0455C15.0664 18 14.2727 17.2482 14.2727 16.3208V13.5221C14.2727 13.213 14.0082 12.9624 13.6818 12.9624H11.3182C10.9918 12.9624 10.7273 13.213 10.7273 13.5221V16.3208C10.7273 17.2482 9.9336 18 8.95455 18H7.77273C6.79368 18 6 17.2482 6 16.3208V11.2613C6.00006 10.7512 6.24488 10.2686 6.66535 9.94996L11.3926 6.36797C12.0401 5.87734 12.9599 5.87734 13.6074 6.36797L18.3347 9.94996C18.7551 10.2686 18.9999 10.7512 19 11.2613V16.3208Z" fill="white"/>
</svg>
