<svg width="24" height="24" viewBox="0 0 24 24" fill="none" xmlns="http://www.w3.org/2000/svg">
<path d="M15 22.75H9C3.57 22.75 1.25 20.43 1.25 15V9C1.25 3.57 3.57 1.25 9 1.25H15C20.43 1.25 22.75 3.57 22.75 9V15C22.75 20.43 20.43 22.75 15 22.75ZM9 2.75C4.39 2.75 2.75 4.39 2.75 9V15C2.75 19.61 4.39 21.25 9 21.25H15C19.61 21.25 21.25 19.61 21.25 15V9C21.25 4.39 19.61 2.75 15 2.75H9Z" fill="#9197B3"/>
<path d="M11.6807 13.0344C12.3264 13.0344 12.8495 13.034 13.2725 13.0686C13.7029 13.1038 14.0865 13.1783 14.4424 13.3596C15.0037 13.6456 15.46 14.102 15.7461 14.6633C15.9274 15.0192 16.0019 15.4027 16.0371 15.8332C16.0717 16.2562 16.0723 16.7791 16.0723 17.425V17.7776C16.072 18.1304 15.7855 18.4161 15.4326 18.4162H6.63965C6.28667 18.4162 6.00031 18.1305 6 17.7776V17.425C6 16.7792 5.99963 16.2562 6.03418 15.8332C6.06936 15.4027 6.14383 15.0193 6.3252 14.6633C6.61122 14.102 7.06767 13.6457 7.62891 13.3596C7.98481 13.1783 8.36837 13.1038 8.79883 13.0686C9.2218 13.034 9.7448 13.0344 10.3906 13.0344H11.6807ZM10.3906 14.3127C9.72385 14.3127 9.26213 14.3137 8.90332 14.343C8.55187 14.3717 8.35558 14.425 8.20996 14.4992C7.88921 14.6627 7.62831 14.9236 7.46484 15.2444C7.3907 15.39 7.3373 15.5864 7.30859 15.9377C7.28371 16.2426 7.28095 16.6219 7.28027 17.1379H14.792C14.7913 16.6219 14.7876 16.2426 14.7627 15.9377C14.734 15.5863 14.6806 15.39 14.6064 15.2444C14.443 14.9236 14.1821 14.6627 13.8613 14.4992C13.7158 14.4252 13.5199 14.3717 13.1689 14.343C12.8101 14.3137 12.3476 14.3127 11.6807 14.3127H10.3906ZM16.8809 6.0803C17.1895 5.90907 17.5786 6.02071 17.75 6.32932L17.2178 6.62424C17.7499 6.32864 17.7508 6.32905 17.751 6.32932V6.33127L17.7588 6.34397L17.8232 6.47287C17.863 6.55678 17.9159 6.6763 17.9736 6.82639C18.089 7.12643 18.2248 7.55461 18.3154 8.0803C18.4972 9.13503 18.4965 10.5891 17.7734 12.1799C17.6272 12.5013 17.2472 12.6434 16.9258 12.4973C16.6046 12.351 16.4634 11.972 16.6094 11.6506C17.205 10.3402 17.2035 9.15566 17.0557 8.29807C16.9815 7.86809 16.8699 7.52106 16.7793 7.28537C16.7341 7.16784 16.6941 7.07795 16.667 7.02073C16.6536 6.99256 16.6429 6.9722 16.6367 6.96018C16.6343 6.95541 16.6329 6.95146 16.6318 6.94944C16.4608 6.6408 16.5723 6.2517 16.8809 6.0803ZM11.0361 6.58616C12.522 6.58636 13.7272 7.79075 13.7275 9.27659C13.7275 10.7627 12.5222 11.9688 11.0361 11.969C9.54995 11.9689 8.34473 10.7628 8.34473 9.27659C8.3451 7.79069 9.55018 6.58627 11.0361 6.58616ZM14.8535 7.23948C15.1692 7.08183 15.5529 7.21011 15.7109 7.52561L15.7119 7.52756L15.7139 7.53049C15.7148 7.53233 15.7157 7.53491 15.7168 7.53733C15.7194 7.54262 15.7229 7.54995 15.7266 7.55783C15.7339 7.57362 15.7439 7.59457 15.7549 7.62033C15.777 7.67216 15.805 7.74472 15.8359 7.8342C15.8979 8.01318 15.9706 8.26639 16.0186 8.57541C16.1145 9.19458 16.1142 10.0488 15.7314 10.9846C15.5977 11.3114 15.2243 11.4678 14.8975 11.3342C14.5709 11.2005 14.4136 10.8279 14.5469 10.5012C14.8233 9.82556 14.8236 9.21387 14.7549 8.77073C14.7204 8.54886 14.669 8.37079 14.6279 8.25217C14.6076 8.19332 14.5895 8.14982 14.5781 8.12326C14.5726 8.11031 14.5684 8.10126 14.5664 8.0969H14.5674C14.41 7.78116 14.5379 7.39729 14.8535 7.23948ZM11.0361 7.86545C10.2565 7.86556 9.6244 8.49704 9.62402 9.27659C9.62402 10.0564 10.2563 10.6896 11.0361 10.6897C11.8159 10.6895 12.4482 10.0564 12.4482 9.27659C12.4479 8.4971 11.8157 7.86566 11.0361 7.86545Z" fill="#9197B3"/>
</svg>
