<svg width="24" height="24" viewBox="0 0 24 24" fill="none" xmlns="http://www.w3.org/2000/svg">
<path d="M15 22.75H9C3.57 22.75 1.25 20.43 1.25 15V9C1.25 3.57 3.57 1.25 9 1.25H15C20.43 1.25 22.75 3.57 22.75 9V15C22.75 20.43 20.43 22.75 15 22.75ZM9 2.75C4.39 2.75 2.75 4.39 2.75 9V15C2.75 19.61 4.39 21.25 9 21.25H15C19.61 21.25 21.25 19.61 21.25 15V9C21.25 4.39 19.61 2.75 15 2.75H9Z" fill="#9197B3"/>
<path d="M13.5791 5.05273C13.9278 5.05273 14.2107 5.33494 14.2109 5.68359C14.2109 6.03241 13.9279 6.31543 13.5791 6.31543H7.26367V17.6846H16.1055V10.7383C16.1056 10.3896 16.3886 10.1065 16.7373 10.1064C17.0861 10.1064 17.369 10.3896 17.3691 10.7383V17.6846C17.369 18.3821 16.803 18.9473 16.1055 18.9473H7.26367C6.56615 18.9473 6.00018 18.3821 6 17.6846V6.31543C6.00006 5.61784 6.56607 5.05273 7.26367 5.05273H13.5791ZM12.3164 12.6318C12.665 12.632 12.9471 12.9141 12.9473 13.2627C12.9473 13.6114 12.6651 13.8944 12.3164 13.8945H8.52637C8.17764 13.8944 7.89453 13.6114 7.89453 13.2627C7.89474 12.9141 8.17777 12.6319 8.52637 12.6318H12.3164ZM11.0527 9.47363C11.4016 9.47363 11.6846 9.75665 11.6846 10.1055C11.6844 10.4541 11.4014 10.7363 11.0527 10.7363H8.52637C8.17776 10.7362 7.89471 10.4541 7.89453 10.1055C7.89453 9.75672 8.17764 9.47374 8.52637 9.47363H11.0527ZM16.9219 5.86914C17.1685 5.62274 17.5688 5.62266 17.8154 5.86914C18.062 6.11572 18.0619 6.51602 17.8154 6.7627L14.0273 10.5508C13.7807 10.7973 13.3804 10.7974 13.1338 10.5508C12.8873 10.3042 12.8873 9.90385 13.1338 9.65723L16.9219 5.86914Z" fill="#9197B3"/>
</svg>
