<svg width="22" height="22" viewBox="0 0 22 22" fill="none" xmlns="http://www.w3.org/2000/svg">
<path d="M13.75 21.5H7.75C2.32 21.5 0 19.18 0 13.75V7.75C0 2.32 2.32 0 7.75 0H13.75C19.18 0 21.5 2.32 21.5 7.75V13.75C21.5 19.18 19.18 21.5 13.75 21.5ZM7.75 1.5C3.14 1.5 1.5 3.14 1.5 7.75V13.75C1.5 18.36 3.14 20 7.75 20H13.75C18.36 20 20 18.36 20 13.75V7.75C20 3.14 18.36 1.5 13.75 1.5H7.75Z" fill="#9197B3"/>
<path d="M14.357 3.75C14.7704 3.75001 15.1752 3.92266 15.4615 4.24161L18.3752 7.48817C18.8786 8.04892 18.8724 8.8927 18.3717 9.44806L18.3731 9.44952L11.5683 17.3708C11.1339 17.8764 10.366 17.8764 9.9317 17.3708L3.12686 9.44952L3.12828 9.44806C2.62757 8.89271 2.62145 8.04892 3.12473 7.48817L6.03845 4.24161C6.32476 3.92266 6.72951 3.75001 7.14299 3.75H14.357ZM7.11671 5.24891C7.11012 5.25182 7.10771 5.25455 7.10819 5.25402L4.22288 8.46775L10.75 16.0644L17.2764 8.46775L14.3918 5.25402C14.3923 5.25454 14.3898 5.25182 14.3833 5.24891C14.3766 5.24602 14.3676 5.24381 14.357 5.24381H7.14299C7.1324 5.24381 7.12336 5.24602 7.11671 5.24891Z" fill="#9197B3"/>
<path d="M13.3525 9.00819C13.6461 8.69065 14.1512 8.66207 14.4815 8.94433C14.8117 9.22659 14.8414 9.71233 14.5479 10.0299L11.3477 13.4916C11.1959 13.6558 10.9785 13.75 10.75 13.75C10.5215 13.75 10.3041 13.6558 10.1523 13.4916L6.95211 10.0299C6.65855 9.71233 6.68827 9.22659 7.01852 8.94433C7.34876 8.66207 7.85394 8.69065 8.14749 9.00819L10.75 11.8231L13.3525 9.00819Z" fill="#9197B3"/>
</svg>
