<svg width="24" height="24" viewBox="0 0 24 24" fill="none" xmlns="http://www.w3.org/2000/svg">
<path d="M15 22.75H9C3.57 22.75 1.25 20.43 1.25 15V9C1.25 3.57 3.57 1.25 9 1.25H15C20.43 1.25 22.75 3.57 22.75 9V15C22.75 20.43 20.43 22.75 15 22.75ZM9 2.75C4.39 2.75 2.75 4.39 2.75 9V15C2.75 19.61 4.39 21.25 9 21.25H15C19.61 21.25 21.25 19.61 21.25 15V9C21.25 4.39 19.61 2.75 15 2.75H9Z" fill="#9197B3"/>
<path d="M5 5.7C5 5.3134 5.3134 5 5.7 5C6.0866 5 6.4 5.3134 6.4 5.7V17.6H18.3C18.6866 17.6 19 17.9134 19 18.3C19 18.6866 18.6866 19 18.3 19H5.7C5.3134 19 5 18.6866 5 18.3V5.7Z" fill="#9197B3"/>
<path d="M7.8 15.5V14.1C7.8 13.7134 8.1134 13.4 8.5 13.4C8.8866 13.4 9.2 13.7134 9.2 14.1V15.5C9.2 15.8866 8.8866 16.2 8.5 16.2C8.1134 16.2 7.8 15.8866 7.8 15.5Z" fill="#9197B3"/>
<path d="M10.6 15.5V11.3C10.6 10.9134 10.9134 10.6 11.3 10.6C11.6866 10.6 12 10.9134 12 11.3V15.5C12 15.8866 11.6866 16.2 11.3 16.2C10.9134 16.2 10.6 15.8866 10.6 15.5Z" fill="#9197B3"/>
<path d="M13.4 15.5V5.7C13.4 5.3134 13.7134 5 14.1 5C14.4866 5 14.8 5.3134 14.8 5.7V15.5C14.8 15.8866 14.4866 16.2 14.1 16.2C13.7134 16.2 13.4 15.8866 13.4 15.5Z" fill="#9197B3"/>
<path d="M16.2 15.5V8.49999C16.2 8.11339 16.5134 7.79999 16.9 7.79999C17.2866 7.79999 17.6 8.11339 17.6 8.49999V15.5C17.6 15.8866 17.2866 16.2 16.9 16.2C16.5134 16.2 16.2 15.8866 16.2 15.5Z" fill="#9197B3"/>
</svg>
