<svg width="22" height="22" viewBox="0 0 22 22" fill="none" xmlns="http://www.w3.org/2000/svg">
<path d="M13.75 21.5H7.75C2.32 21.5 0 19.18 0 13.75V7.75C0 2.32 2.32 0 7.75 0H13.75C19.18 0 21.5 2.32 21.5 7.75V13.75C21.5 19.18 19.18 21.5 13.75 21.5ZM7.75 1.5C3.14 1.5 1.5 3.14 1.5 7.75V13.75C1.5 18.36 3.14 20 7.75 20H13.75C18.36 20 20 18.36 20 13.75V7.75C20 3.14 18.36 1.5 13.75 1.5H7.75Z" fill="#9197B3"/>
<path d="M14.3856 4.75C15.9922 4.75 17.2947 6.05254 17.2948 7.65918C17.2948 8.23585 17.1242 8.7715 16.8348 9.22363C16.9878 9.33606 17.1551 9.47383 17.325 9.6416C17.8965 10.2057 18.4876 11.0888 18.7059 12.3945L18.744 12.6621L18.7498 12.7363C18.7573 13.1047 18.4838 13.4259 18.1102 13.4717C17.7367 13.5173 17.395 13.2713 17.3133 12.9121L17.3006 12.8379L17.2713 12.6387C17.1092 11.6638 16.6817 11.0501 16.3036 10.6768C16.0983 10.4741 15.9026 10.3372 15.7635 10.2539C15.7526 10.2474 15.7414 10.2422 15.7313 10.2363C15.3286 10.447 14.8715 10.5684 14.3856 10.5684C13.8856 10.5683 13.4157 10.441 13.0047 10.2188C12.9847 10.2263 12.9618 10.2346 12.9373 10.2451C12.8105 10.2994 12.632 10.3916 12.4422 10.5352C12.1852 10.7296 11.9011 11.0264 11.6903 11.4775C12.6299 11.8519 13.2947 12.7677 13.2948 13.8408C13.2948 14.0856 13.2577 14.3218 13.1932 14.5459C13.276 14.5914 13.3628 14.6418 13.451 14.7002C13.9975 15.0619 14.6078 15.6736 14.9989 16.6729L15.0741 16.8779L15.0946 16.9492C15.1781 17.308 14.9778 17.6795 14.6219 17.8018C14.242 17.9319 13.8274 17.7295 13.6971 17.3496C13.4272 16.5627 12.9925 16.1409 12.6483 15.9131C12.5612 15.8555 12.4785 15.8091 12.4041 15.7725C11.9591 16.1541 11.3821 16.3866 10.7498 16.3867C10.1174 16.3867 9.53975 16.1543 9.09457 15.7725C9.02041 15.809 8.93828 15.8556 8.8514 15.9131C8.50717 16.1409 8.0715 16.5626 7.8016 17.3496C7.67135 17.7295 7.25671 17.9319 6.8768 17.8018C6.49722 17.6713 6.29456 17.2577 6.42465 16.8779C6.80925 15.7562 7.46474 15.086 8.04769 14.7002C8.13566 14.642 8.22199 14.5913 8.30453 14.5459C8.24008 14.3219 8.20394 14.0855 8.20394 13.8408C8.20403 12.7681 8.86838 11.8521 9.80746 11.4775C9.59658 11.0266 9.31348 10.7296 9.05648 10.5352C8.86661 10.3916 8.68821 10.2994 8.56137 10.2451C8.53648 10.2345 8.51325 10.2264 8.49301 10.2188C8.0822 10.4407 7.61281 10.5683 7.11312 10.5684C6.62686 10.5684 6.1693 10.4473 5.76644 10.2363C5.75651 10.2421 5.74585 10.2475 5.73519 10.2539C5.59612 10.3372 5.40046 10.4741 5.19515 10.6768C4.79183 11.075 4.33186 11.7464 4.19808 12.8379C4.14928 13.2365 3.78709 13.5203 3.38851 13.4717C2.99002 13.4228 2.70615 13.0606 2.75473 12.6621C2.9327 11.2086 3.56411 10.2433 4.17367 9.6416C4.3434 9.47406 4.5101 9.33598 4.66293 9.22363C4.37371 8.77161 4.20394 8.23563 4.20394 7.65918C4.20396 6.05254 5.50648 4.75 7.11312 4.75C8.71974 4.75003 10.0223 6.05256 10.0223 7.65918C10.0223 8.20645 9.86712 8.7161 9.60433 9.15332C9.70954 9.21712 9.82099 9.28902 9.93344 9.37402C10.2097 9.5829 10.4937 9.85889 10.7479 10.2129C11.0024 9.85819 11.2887 9.58317 11.5653 9.37402C11.6775 9.28921 11.7884 9.21703 11.8934 9.15332C11.6308 8.71621 11.4764 8.20624 11.4764 7.65918C11.4764 6.05262 12.779 4.75012 14.3856 4.75ZM10.7498 12.75C10.1474 12.75 9.65816 13.2384 9.65805 13.8408C9.65805 14.4433 10.1473 14.9316 10.7498 14.9316C11.3521 14.9314 11.8407 14.4432 11.8407 13.8408C11.8405 13.2386 11.3521 12.7502 10.7498 12.75ZM7.11312 6.20508C6.30981 6.20508 5.65806 6.85587 5.65805 7.65918C5.65805 8.4625 6.3098 9.11328 7.11312 9.11328C7.91642 9.11325 8.56722 8.46248 8.56722 7.65918C8.56721 6.85589 7.91641 6.20511 7.11312 6.20508ZM14.3856 6.20508C13.5824 6.2052 12.9315 6.85594 12.9315 7.65918C12.9315 8.46243 13.5824 9.11316 14.3856 9.11328C15.1889 9.11328 15.8407 8.4625 15.8407 7.65918C15.8406 6.85587 15.1889 6.20508 14.3856 6.20508Z" fill="#9197B3"/>
</svg>
