<svg width="24" height="24" viewBox="0 0 24 24" fill="none" xmlns="http://www.w3.org/2000/svg">
<path d="M15 22.75H9C3.57 22.75 1.25 20.43 1.25 15V9C1.25 3.57 3.57 1.25 9 1.25H15C20.43 1.25 22.75 3.57 22.75 9V15C22.75 20.43 20.43 22.75 15 22.75ZM9 2.75C4.39 2.75 2.75 4.39 2.75 9V15C2.75 19.61 4.39 21.25 9 21.25H15C19.61 21.25 21.25 19.61 21.25 15V9C21.25 4.39 19.61 2.75 15 2.75H9Z" fill="#9197B3"/>
<path d="M14.5791 15.0664C14.986 15.0664 15.3153 15.3959 15.3154 15.8027C15.3154 16.2097 14.986 16.54 14.5791 16.54H5.7373C5.33035 16.54 5 16.2097 5 15.8027C5.00013 15.3959 5.33044 15.0664 5.7373 15.0664H14.5791ZM18.9189 14.5166C19.1043 14.8789 18.9609 15.3224 18.5986 15.5078C18.2364 15.693 17.7928 15.5496 17.6074 15.1875L18.9189 14.5166ZM14.5791 7.3291C16.2068 7.32917 17.5263 8.6487 17.5264 10.2764C17.5264 11.0613 17.2171 11.7726 16.7168 12.3008C17.6425 12.7883 18.4334 13.5678 18.9189 14.5166L18.2627 14.8516L17.6074 15.1875C17.0021 14.005 15.7511 13.2248 14.5791 13.2246C13.9135 13.2246 13.4603 13.3177 13.1074 13.4629C12.7544 13.6083 12.4538 13.8242 12.1084 14.1377C11.8072 14.4111 11.3419 14.3889 11.0684 14.0879C10.7949 13.7866 10.8168 13.3204 11.1182 13.0469C11.4795 12.7189 11.8658 12.4187 12.3408 12.1914C11.8996 11.6762 11.6318 11.0079 11.6318 10.2764C11.6319 8.64866 12.9514 7.3291 14.5791 7.3291ZM8.68457 12.1191C9.09135 12.1193 9.42086 12.4487 9.4209 12.8555C9.4209 13.2623 9.09138 13.5926 8.68457 13.5928H5.7373C5.33035 13.5928 5 13.2624 5 12.8555C5.00004 12.4485 5.33038 12.1191 5.7373 12.1191H8.68457ZM14.5791 8.80273C13.7653 8.80273 13.1056 9.46256 13.1055 10.2764C13.1055 11.0903 13.7652 11.75 14.5791 11.75C15.3929 11.7499 16.0527 11.0902 16.0527 10.2764C16.0526 9.4626 15.3929 8.8028 14.5791 8.80273ZM8.68457 8.80273C9.09138 8.80291 9.4209 9.13319 9.4209 9.54004C9.4208 9.9468 9.09132 10.2762 8.68457 10.2764H5.7373C5.33041 10.2764 5.0001 9.94691 5 9.54004C5 9.13309 5.33035 8.80273 5.7373 8.80273H8.68457Z" fill="#9197B3"/>
</svg>
