<svg width="24" height="24" viewBox="0 0 24 24" fill="none" xmlns="http://www.w3.org/2000/svg">
<path d="M14.75 22.75H8.75C3.32 22.75 1 20.43 1 15V9C1 3.57 3.32 1.25 8.75 1.25H14.75C20.18 1.25 22.5 3.57 22.5 9V15C22.5 20.43 20.18 22.75 14.75 22.75ZM8.75 2.75C4.14 2.75 2.5 4.39 2.5 9V15C2.5 19.61 4.14 21.25 8.75 21.25H14.75C19.36 21.25 21 19.61 21 15V9C21 4.39 19.36 2.75 14.75 2.75H8.75Z" fill="#9197B3"/>
<path d="M11.9092 4.35254C15.1726 4.35256 17.8182 6.99835 17.8184 10.2617C17.8184 12.7674 16.386 15.0985 15.0557 16.7393C14.38 17.5725 13.706 18.2575 13.2012 18.7344C12.9483 18.9732 12.7365 19.1621 12.5869 19.291C12.5123 19.3553 12.4525 19.4052 12.4111 19.4395C12.3905 19.4565 12.3737 19.4693 12.3623 19.4785C12.3569 19.4829 12.3528 19.4867 12.3496 19.4893L12.3447 19.4941H12.3438V19.4951C12.0899 19.6982 11.7285 19.6982 11.4746 19.4951V19.4941H11.4736L11.4688 19.4893C11.4656 19.4867 11.4615 19.4829 11.4561 19.4785C11.4447 19.4693 11.4278 19.4565 11.4072 19.4395C11.3658 19.4051 11.3053 19.3555 11.2305 19.291C11.0809 19.1621 10.87 18.9731 10.6172 18.7344C10.1123 18.2575 9.43836 17.5726 8.7627 16.7393C7.43236 15.0985 6 12.7675 6 10.2617C6.00019 6.99834 8.64576 4.35254 11.9092 4.35254ZM11.9092 5.74316C9.41365 5.74316 7.39081 7.76623 7.39062 10.2617C7.39062 12.2745 8.5653 14.2888 9.8418 15.8633C10.4694 16.6373 11.0986 17.2782 11.5713 17.7246C11.6958 17.8422 11.81 17.9461 11.9092 18.0352C12.0083 17.9462 12.1217 17.8421 12.2461 17.7246C12.7188 17.2782 13.3489 16.6374 13.9766 15.8633C15.253 14.2888 16.4277 12.2745 16.4277 10.2617C16.4275 7.76624 14.4047 5.74319 11.9092 5.74316ZM11.9092 7.48145C13.4448 7.48145 14.6902 8.72616 14.6904 10.2617C14.6904 11.7975 13.445 13.043 11.9092 13.043C10.3734 13.0429 9.12891 11.7975 9.12891 10.2617C9.12916 8.72618 10.3736 7.48149 11.9092 7.48145ZM11.9092 8.87207C11.1415 8.87211 10.5188 9.49407 10.5186 10.2617C10.5186 11.0296 11.1413 11.6523 11.9092 11.6523C12.6771 11.6523 13.2998 11.0296 13.2998 10.2617C13.2996 9.49405 12.6769 8.87207 11.9092 8.87207Z" fill="#9197B3"/>
</svg>
