<svg width="24" height="24" viewBox="0 0 24 24" fill="none" xmlns="http://www.w3.org/2000/svg">
<path d="M15 22.75H9C3.57 22.75 1.25 20.43 1.25 15V9C1.25 3.57 3.57 1.25 9 1.25H15C20.43 1.25 22.75 3.57 22.75 9V15C22.75 20.43 20.43 22.75 15 22.75ZM9 2.75C4.39 2.75 2.75 4.39 2.75 9V15C2.75 19.61 4.39 21.25 9 21.25H15C19.61 21.25 21.25 19.61 21.25 15V9C21.25 4.39 19.61 2.75 15 2.75H9Z" fill="#9197B3"/>
<path d="M11.3574 6C14.1923 6.00014 16.513 8.20219 16.7021 10.9893V10.999C17.7796 11.6507 18.5 12.8335 18.5 14.1846C18.5 14.6821 18.4008 15.1577 18.2227 15.5928L18.4922 17.2119C18.5285 17.4314 18.439 17.653 18.2607 17.7861C18.0821 17.9192 17.8437 17.9414 17.6436 17.8438L16.6855 17.376C16.1276 17.7098 15.4759 17.9043 14.7793 17.9043C13.6858 17.9042 12.7031 17.4319 12.0225 16.6807C11.252 16.772 10.4555 16.6891 9.63965 16.4453L7.72559 17.2686C7.52578 17.3542 7.29516 17.3245 7.12402 17.1904C6.95275 17.0561 6.86861 16.8387 6.9043 16.624L7.21484 14.7529C6.45648 13.8288 6 12.6453 6 11.3564C6.00025 8.39798 8.3989 6 11.3574 6ZM14.7793 11.6543C13.3824 11.6545 12.25 12.7876 12.25 14.1846C12.2502 15.5814 13.3825 16.7136 14.7793 16.7139C15.3454 16.7139 15.867 16.5282 16.2881 16.2148C16.2943 16.2102 16.3012 16.2065 16.3076 16.2021C16.3258 16.1897 16.3449 16.1792 16.3643 16.1689C16.378 16.1616 16.3912 16.1536 16.4053 16.1475C16.4252 16.1388 16.446 16.1325 16.4668 16.126C16.4827 16.121 16.4985 16.1159 16.5146 16.1123C16.5381 16.1071 16.5619 16.1049 16.5859 16.1025C16.5977 16.1014 16.6093 16.0991 16.6211 16.0986C16.6542 16.0974 16.6874 16.0991 16.7207 16.1035C16.7243 16.104 16.7279 16.104 16.7314 16.1045C16.7708 16.1104 16.8102 16.1196 16.8486 16.1338L16.9053 16.1582L17.1289 16.2676L17.0205 15.6123L17.0137 15.5518C17.013 15.5413 17.0138 15.5309 17.0137 15.5205C17.0135 15.5033 17.0143 15.4861 17.0156 15.4688C17.0175 15.4446 17.0206 15.4209 17.0254 15.3975C17.0279 15.385 17.0308 15.3727 17.0342 15.3604C17.0413 15.3342 17.0501 15.3089 17.0605 15.2842C17.0637 15.2768 17.0659 15.269 17.0693 15.2617C17.223 14.9358 17.3095 14.5709 17.3096 14.1846C17.3096 12.7874 16.1764 11.6543 14.7793 11.6543ZM11.3574 7.19043C9.05638 7.19043 7.19068 9.05546 7.19043 11.3564C7.19043 12.4426 7.60531 13.4308 8.28613 14.1729C8.40988 14.3077 8.46444 14.4923 8.43457 14.6729L8.25684 15.7451L9.37402 15.2656L9.4248 15.2461C9.54498 15.2071 9.67508 15.207 9.7959 15.2471C10.3289 15.4243 10.8329 15.5148 11.3096 15.5254C11.1487 15.1093 11.0596 14.6574 11.0596 14.1846C11.0596 12.1301 12.7249 10.4641 14.7793 10.4639C15.0042 10.4639 15.2246 10.4852 15.4385 10.5234C15.0523 8.62199 13.3729 7.19056 11.3574 7.19043ZM13.7197 12.9639C13.9969 12.964 14.2215 13.1905 14.2217 13.4697C14.2217 13.7491 13.997 13.9755 13.7197 13.9756C13.4423 13.9756 13.2168 13.7492 13.2168 13.4697C13.2169 13.1904 13.4424 12.9639 13.7197 12.9639ZM15.7285 12.9639C16.0058 12.9639 16.2303 13.1904 16.2305 13.4697C16.2305 13.7491 16.0059 13.9755 15.7285 13.9756C15.4511 13.9756 15.2266 13.7492 15.2266 13.4697C15.2267 13.1904 15.4512 12.9639 15.7285 12.9639ZM9.6084 9.55176C9.97812 9.55176 10.2782 9.85317 10.2783 10.2256C10.2783 10.5982 9.97822 10.9004 9.6084 10.9004C9.23868 10.9003 8.93945 10.5981 8.93945 10.2256C8.93962 9.85325 9.23879 9.55188 9.6084 9.55176ZM12.2871 9.55176C12.6568 9.55176 12.9569 9.85317 12.957 10.2256C12.957 10.5982 12.6569 10.9004 12.2871 10.9004C11.9173 10.9003 11.6172 10.5981 11.6172 10.2256C11.6174 9.8532 11.9174 9.55181 12.2871 9.55176Z" fill="#9197B3"/>
</svg>
