<svg width="21" height="20" viewBox="0 0 21 20" fill="none" xmlns="http://www.w3.org/2000/svg">
<path d="M3.41675 15.4167C3.41675 12.207 3.41675 4.58334 3.41675 4.58334C3.41675 3.20263 4.53604 2.08334 5.91675 2.08334H15.0834V12.9167C15.0834 12.9167 8.097 12.9167 5.91675 12.9167C4.54175 12.9167 3.41675 14.0351 3.41675 15.4167Z" stroke="white" stroke-width="1.5" stroke-linejoin="round"/>
<path d="M15.0834 12.9167C15.0834 12.9167 6.39746 12.9167 5.91675 12.9167C4.53604 12.9167 3.41675 14.0359 3.41675 15.4167C3.41675 16.7974 4.53604 17.9167 5.91675 17.9167C6.83721 17.9167 11.2817 17.9167 17.5834 17.9167V2.91666" stroke="white" stroke-width="1.5" stroke-linecap="round" stroke-linejoin="round"/>
<path d="M6.33325 15.4167H14.6666" stroke="white" stroke-width="1.5" stroke-linecap="round" stroke-linejoin="round"/>
</svg>
