<svg width="20" height="20" viewBox="0 0 20 20" fill="none" xmlns="http://www.w3.org/2000/svg">
<path d="M10 0C14.0165 0 17.2723 3.25596 17.2725 7.27246V15.4541H19.0908C19.5928 15.4541 19.9998 15.8614 20 16.3633C20 16.8654 19.5929 17.2725 19.0908 17.2725H13.1494C12.929 18.8145 11.603 20 10 20C8.39699 20 7.07105 18.8145 6.85059 17.2725H0.90918C0.407103 17.2725 0 16.8654 0 16.3633C0.000192127 15.8614 0.407221 15.4541 0.90918 15.4541H2.72754V7.27246C2.72768 3.25596 5.98347 1.61065e-07 10 0ZM8.71582 17.2725C8.90315 17.8019 9.40644 18.1816 10 18.1816C10.5936 18.1816 11.0969 17.8019 11.2842 17.2725H8.71582ZM10 1.81836C6.98762 1.81836 4.54604 4.26012 4.5459 7.27246V15.4541H15.4541V7.27246C15.454 4.26012 13.0124 1.81836 10 1.81836Z" fill="#7E7E7E"/>
</svg>
