<svg width="21" height="20" viewBox="0 0 21 20" fill="none" xmlns="http://www.w3.org/2000/svg">
<path d="M8 2.5H3.83333C3.3731 2.5 3 2.8731 3 3.33333V7.5C3 7.96025 3.3731 8.33333 3.83333 8.33333H8C8.46025 8.33333 8.83333 7.96025 8.83333 7.5V3.33333C8.83333 2.8731 8.46025 2.5 8 2.5Z" stroke="white" stroke-width="1.5" stroke-linejoin="round"/>
<path d="M8 11.6667H3.83333C3.3731 11.6667 3 12.0397 3 12.5V16.6667C3 17.1269 3.3731 17.5 3.83333 17.5H8C8.46025 17.5 8.83333 17.1269 8.83333 16.6667V12.5C8.83333 12.0397 8.46025 11.6667 8 11.6667Z" stroke="white" stroke-width="1.5" stroke-linejoin="round"/>
<path d="M17.1665 2.5H12.9998C12.5396 2.5 12.1665 2.8731 12.1665 3.33333V7.5C12.1665 7.96025 12.5396 8.33333 12.9998 8.33333H17.1665C17.6268 8.33333 17.9998 7.96025 17.9998 7.5V3.33333C17.9998 2.8731 17.6268 2.5 17.1665 2.5Z" stroke="white" stroke-width="1.5" stroke-linejoin="round"/>
<path d="M17.1665 11.6667H12.9998C12.5396 11.6667 12.1665 12.0397 12.1665 12.5V16.6667C12.1665 17.1269 12.5396 17.5 12.9998 17.5H17.1665C17.6268 17.5 17.9998 17.1269 17.9998 16.6667V12.5C17.9998 12.0397 17.6268 11.6667 17.1665 11.6667Z" stroke="white" stroke-width="1.5" stroke-linejoin="round"/>
</svg>
