<svg width="19" height="27" viewBox="0 0 19 27" fill="none" xmlns="http://www.w3.org/2000/svg">
<g clip-path="url(#clip0_84_319)">
<path d="M17.3245 8.66742C17.3245 8.66742 17.0802 9.33323 15.8528 11.0225C15.8125 8.53307 12.4049 8.11619 13.8685 4.147C10.9131 5.23759 9.1972 8.61407 9.49798 13.0752C8.74299 8.03321 5.63419 4.32284 0 3.83484C4.01519 11.1588 0.262431 15.13 0.262431 19.0853C0.262431 24.4829 5.13759 26.998 9.17903 26.998C20.5403 26.998 20.1567 15.4777 17.3245 8.66742Z" fill="#EF470C"/>
<path d="M17.1589 18.4709C17.1589 18.4709 13.1841 20.7805 10.8404 20.0811C8.92465 19.5081 8.76517 17.7438 8.13332 15.8353C7.73361 14.6281 6.19133 13.0713 4.92964 12.7809C4.92762 12.7809 4.92358 12.7809 4.92156 12.7809C6.98266 16.268 4.83072 17.5818 5.58975 21.2744C5.184 19.3441 3.31468 18.2022 3.31468 18.2022C2.34974 21.4483 5.73106 25.9074 9.19919 25.9074C12.6673 25.9074 15.9699 23.3548 17.1609 18.4729L17.1589 18.4709Z" fill="#EDCA58"/>
<path d="M12.2373 10.9968C12.2373 10.9968 12.2373 12.7749 14.0542 14.8474C15.871 16.92 12.2373 19.0932 12.2373 19.0932C12.2373 19.0932 13.0448 18.1054 11.7327 15.8333C10.4205 13.5613 12.2373 10.9948 12.2373 10.9948V10.9968Z" fill="#EDCA58"/>
<path d="M8.14343 0C8.14343 0 8.14343 1.18542 9.35465 2.56842C10.5659 3.95141 8.14343 5.3996 8.14343 5.3996C8.14343 5.3996 8.68243 4.74169 7.80631 3.22633C6.93221 1.71096 8.14343 0 8.14343 0Z" fill="#EF470C"/>
</g>
<defs>
<clipPath id="clip0_84_319">
<rect width="19" height="27" fill="white"/>
</clipPath>
</defs>
</svg>
